<svg xmlns="http://www.w3.org/2000/svg" width="200" height="60" viewBox="0 0 200 60">
  <g id="Grupo_1" data-name="Grupo 1" transform="translate(-89 -56)">
    <text id="GoMeal." transform="translate(89 56)" fill="#dbdbdb" font-size="40" font-family="SegoeUI-Bold, Segoe UI" font-weight="700"><tspan x="0" y="43">Note</tspan><tspan y="43" xml:space="preserve" fill="#f8b602">B  x.</tspan></text>
    <path id="Vector" d="M0,24.161c0,2.863,6.48,4.167,12.5,4.167S25,27.024,25,24.161c0-2.273-3.935-3.3-6.77-3.743l1.937-1.923a10.833,10.833,0,1,0-15.32,0l1.93,1.93C3.935,20.861,0,21.887,0,24.161Zm14.167-17.5A.833.833,0,0,1,15.5,5.994a9.167,9.167,0,0,1,3.632,6.547,1.655,1.655,0,0,1-1.253,1.76l-2.045.512v1.848a.833.833,0,1,1-1.667,0Zm-7.5,1.667V6.661a.833.833,0,1,1,1.667,0V8.327a1.642,1.642,0,0,0,.833,1.41V6.661a.833.833,0,1,1,1.667,0V9.737a1.642,1.642,0,0,0,.833-1.41V6.661a.833.833,0,1,1,1.667,0V8.327a3.333,3.333,0,0,1-2.5,3.215v5.118a.833.833,0,1,1-1.667,0V11.542a3.333,3.333,0,0,1-2.5-3.215ZM8.257,21.9l2.475,2.477a2.5,2.5,0,0,0,3.537,0L16.743,21.9c4.58.53,6.59,1.737,6.59,2.257,0,.747-3.685,2.5-10.833,2.5s-10.833-1.753-10.833-2.5C1.667,23.641,3.677,22.434,8.257,21.9Z" transform="translate(206.333 78.673)" fill="#f8b602"/>
  </g>
</svg>
